<svg width="600" height="800" viewBox="0 0 600 800" fill="none" xmlns="http://www.w3.org/2000/svg">
  <!-- 定义 -->
  <defs>
    <!-- 主背景渐变 -->
    <linearGradient id="bgGradient" x1="0%" y1="0%" x2="100%" y2="100%">
      <stop offset="0%" stop-color="#080E17" />
      <stop offset="100%" stop-color="#1A1F2B" />
    </linearGradient>
    
    <!-- 霓虹蓝渐变 -->
    <linearGradient id="neonBlueGradient" x1="0%" y1="0%" x2="100%" y2="100%">
      <stop offset="0%" stop-color="#0EA5E9" />
      <stop offset="100%" stop-color="#06B6D4" />
    </linearGradient>
    
    <!-- 霓虹粉渐变 -->
    <linearGradient id="neonPinkGradient" x1="0%" y1="0%" x2="100%" y2="100%">
      <stop offset="0%" stop-color="#EC4899" />
      <stop offset="100%" stop-color="#8B5CF6" />
    </linearGradient>
    
    <!-- 金色渐变 -->
    <linearGradient id="goldGradient" x1="0%" y1="0%" x2="100%" y2="100%">
      <stop offset="0%" stop-color="#F59E0B" />
      <stop offset="100%" stop-color="#FBBF24" />
    </linearGradient>
    
    <!-- 网格图案 -->
    <pattern id="grid" width="30" height="30" patternUnits="userSpaceOnUse">
      <path d="M 30 0 L 0 0 0 30" fill="none" stroke="rgba(255,255,255,0.05)" stroke-width="1"/>
    </pattern>
    
    <!-- 光晕效果 -->
    <filter id="glow" x="-20%" y="-20%" width="140%" height="140%">
      <feGaussianBlur stdDeviation="15" result="blur"/>
      <feComposite in="SourceGraphic" in2="blur" operator="over"/>
    </filter>
    
    <!-- 电路图案遮罩 -->
    <mask id="circuitMask">
      <rect width="600" height="800" fill="black"/>
      <path d="M50 50 L200 50 L200 150 L350 150 L350 50 L550 50" stroke="white" stroke-width="2" fill="none" opacity="0.3"/>
      <path d="M50 100 L200 100" stroke="white" stroke-width="2" fill="none" opacity="0.3"/>
      <path d="M50 150 L200 150" stroke="white" stroke-width="2" fill="none" opacity="0.3"/>
      <path d="M350 100 L550 100" stroke="white" stroke-width="2" fill="none" opacity="0.3"/>
      <path d="M50 750 L200 750 L200 650 L350 650 L350 750 L550 750" stroke="white" stroke-width="2" fill="none" opacity="0.3"/>
      <path d="M50 700 L200 700" stroke="white" stroke-width="2" fill="none" opacity="0.3"/>
      <path d="M50 650 L200 650" stroke="white" stroke-width="2" fill="none" opacity="0.3"/>
      <path d="M350 700 L550 700" stroke="white" stroke-width="2" fill="none" opacity="0.3"/>
      <!-- 数据流动图形 -->
      <path d="M100 200 C150 250, 450 250, 500 200" stroke="white" stroke-width="2" fill="none" opacity="0.3"/>
      <path d="M100 250 C150 300, 450 300, 500 250" stroke="white" stroke-width="2" fill="none" opacity="0.3"/>
      <path d="M100 600 C150 650, 450 650, 500 600" stroke="white" stroke-width="2" fill="none" opacity="0.3"/>
      <path d="M100 650 C150 700, 450 700, 500 650" stroke="white" stroke-width="2" fill="none" opacity="0.3"/>
    </mask>
  </defs>
  
  <!-- 主背景 -->
  <rect width="600" height="800" fill="url(#bgGradient)"/>
  
  <!-- 网格背景 -->
  <rect width="600" height="800" fill="url(#grid)"/>
  
  <!-- 电路图案背景 -->
  <rect width="600" height="800" mask="url(#circuitMask)" fill="rgba(255,255,255,0.02)"/>
  
  <!-- 装饰性圆形 -->
  <circle cx="100" cy="200" r="180" fill="rgba(6,182,212,0.05)"/>
  <circle cx="500" cy="600" r="150" fill="rgba(236,72,153,0.05)"/>
  
  <!-- 动态波形线 -->
  <path d="M0,350 Q150,280 300,350 T600,350" stroke="url(#neonBlueGradient)" stroke-width="2" fill="none" stroke-opacity="0.5"/>
  <path d="M0,380 Q150,310 300,380 T600,380" stroke="url(#neonBlueGradient)" stroke-width="2" fill="none" stroke-opacity="0.3"/>
  <path d="M0,400 Q150,330 300,400 T600,400" stroke="url(#neonBlueGradient)" stroke-width="1" fill="none" stroke-opacity="0.2"/>
  
  <!-- 10x 标题区域 -->
  <g filter="url(#glow)">
    <text fill="url(#goldGradient)" font-family="'Orbitron', sans-serif" font-size="120" font-weight="bold" letter-spacing="0.05em" text-anchor="middle" x="300" y="260">10x</text>
  </g>
  
  <!-- DDAD 实践指南标题 -->
  <text fill="white" font-family="'Microsoft YaHei', sans-serif" font-size="48" font-weight="bold" letter-spacing="0.05em" text-anchor="middle">
    <tspan x="300" y="380">DDAD 实践</tspan>
    <tspan x="300" y="450">指南</tspan>
  </text>
  
  <!-- 科技元素：连接线和节点 -->
  <g opacity="0.4">
    <line x1="150" y1="500" x2="250" y2="500" stroke="#0EA5E9" stroke-width="2"/>
    <line x1="250" y1="500" x2="300" y2="550" stroke="#0EA5E9" stroke-width="2"/>
    <line x1="300" y1="550" x2="350" y2="500" stroke="#0EA5E9" stroke-width="2"/>
    <line x1="350" y1="500" x2="450" y2="500" stroke="#0EA5E9" stroke-width="2"/>
    <circle cx="150" cy="500" r="6" fill="#38BDF8"/>
    <circle cx="250" cy="500" r="6" fill="#38BDF8"/>
    <circle cx="300" cy="550" r="6" fill="#38BDF8"/>
    <circle cx="350" cy="500" r="6" fill="#38BDF8"/>
    <circle cx="450" cy="500" r="6" fill="#38BDF8"/>
  </g>
  
  <!-- 几何装饰元素 -->
  <polygon points="50,50 80,30 110,50 80,70" fill="none" stroke="url(#neonPinkGradient)" stroke-width="2" opacity="0.6"/>
  <polygon points="550,750 520,770 490,750 520,730" fill="none" stroke="url(#neonPinkGradient)" stroke-width="2" opacity="0.6"/>
  
  <!-- 技术核心符号 -->
  <g transform="translate(300, 570)" opacity="0.8">
    <circle cx="0" cy="0" r="40" fill="none" stroke="url(#neonBlueGradient)" stroke-width="2"/>
    <circle cx="0" cy="0" r="30" fill="none" stroke="url(#neonPinkGradient)" stroke-width="2"/>
    <circle cx="0" cy="0" r="15" fill="rgba(14,165,233,0.3)"/>
    <line x1="-40" y1="0" x2="40" y2="0" stroke="url(#neonBlueGradient)" stroke-width="1"/>
    <line x1="0" y1="-40" x2="0" y2="40" stroke="url(#neonBlueGradient)" stroke-width="1"/>
    <line x1="-28" y1="-28" x2="28" y2="28" stroke="url(#neonPinkGradient)" stroke-width="1"/>
    <line x1="28" y1="-28" x2="-28" y2="28" stroke="url(#neonPinkGradient)" stroke-width="1"/>
  </g>
  
  <!-- 作者信息 -->
  <text fill="#94A3B8" font-family="'Microsoft YaHei', sans-serif" font-size="20" text-anchor="middle" x="300" y="720">Leoo Bai</text>
  
  <!-- 底部科技装饰线 -->
  <line x1="150" y1="760" x2="450" y2="760" stroke="url(#neonBlueGradient)" stroke-width="2"/>
</svg>