<svg width="600" height="800" viewBox="0 0 600 800" fill="none" xmlns="http://www.w3.org/2000/svg">
  <!-- 背景 -->
  <defs>
    <!-- 主背景渐变 -->
    <linearGradient id="bgGradient" x1="0%" y1="0%" x2="100%" y2="100%">
      <stop offset="0%" stop-color="#0F172A" />
      <stop offset="100%" stop-color="#1E293B" />
    </linearGradient>
    
    <!-- 蓝色渐变 -->
    <linearGradient id="blueGradient" x1="0%" y1="0%" x2="100%" y2="100%">
      <stop offset="0%" stop-color="#3B82F6" />
      <stop offset="100%" stop-color="#06B6D4" />
    </linearGradient>
    
    <!-- 紫色渐变 -->
    <linearGradient id="purpleGradient" x1="0%" y1="0%" x2="100%" y2="100%">
      <stop offset="0%" stop-color="#8B5CF6" />
      <stop offset="100%" stop-color="#EC4899" />
    </linearGradient>
    
    <!-- 科技网格图案 -->
    <pattern id="grid" width="40" height="40" patternUnits="userSpaceOnUse">
      <path d="M 40 0 L 0 0 0 40" fill="none" stroke="rgba(255,255,255,0.05)" stroke-width="1"/>
    </pattern>
    
    <!-- 光晕效果 -->
    <filter id="glow" x="-20%" y="-20%" width="140%" height="140%">
      <feGaussianBlur stdDeviation="15" result="blur"/>
      <feComposite in="SourceGraphic" in2="blur" operator="over"/>
    </filter>
  </defs>
  
  <!-- 主背景 -->
  <rect width="600" height="800" fill="url(#bgGradient)"/>
  
  <!-- 网格背景 -->
  <rect width="600" height="800" fill="url(#grid)"/>
  
  <!-- 装饰性圆形 -->
  <circle cx="100" cy="200" r="150" fill="rgba(59,130,246,0.1)"/>
  <circle cx="500" cy="600" r="120" fill="rgba(139,92,246,0.1)"/>
  
  <!-- 动态波浪线 -->
  <path d="M0,250 Q150,180 300,250 T600,250" stroke="url(#blueGradient)" stroke-width="2" fill="none" stroke-opacity="0.7"/>
  <path d="M0,280 Q150,210 300,280 T600,280" stroke="url(#blueGradient)" stroke-width="2" fill="none" stroke-opacity="0.4"/>
  
  <!-- 科技元素：连接线和节点 -->
  <g opacity="0.4">
    <line x1="100" y1="400" x2="200" y2="350" stroke="#60A5FA" stroke-width="1.5"/>
    <line x1="200" y1="350" x2="300" y2="400" stroke="#60A5FA" stroke-width="1.5"/>
    <line x1="300" y1="400" x2="400" y2="350" stroke="#60A5FA" stroke-width="1.5"/>
    <line x1="400" y1="350" x2="500" y2="400" stroke="#60A5FA" stroke-width="1.5"/>
    <circle cx="100" cy="400" r="5" fill="#93C5FD"/>
    <circle cx="200" cy="350" r="5" fill="#93C5FD"/>
    <circle cx="300" cy="400" r="5" fill="#93C5FD"/>
    <circle cx="400" cy="350" r="5" fill="#93C5FD"/>
    <circle cx="500" cy="400" r="5" fill="#93C5FD"/>
  </g>
  
  <!-- 中心标题区域 -->
  <rect x="100" y="150" width="400" height="200" rx="10" fill="rgba(30,41,59,0.7)" filter="url(#glow)"/>
  
  <!-- 标题文字 -->
  <text fill="white" font-family="'Microsoft YaHei', sans-serif" font-size="56" font-weight="bold" text-anchor="middle">
    <tspan x="300" y="240">DDAD</tspan>
    <tspan x="300" y="310">最佳实践</tspan>
  </text>
  
  <!-- 副标题文字 -->
  <text fill="#93C5FD" font-family="'Microsoft YaHei', sans-serif" font-size="28" font-weight="500" text-anchor="middle" x="300" y="400">前沿AI开发理念</text>
  
  <!-- AI相关图形元素 -->
  <g transform="translate(300, 500)" filter="url(#glow)">
    <!-- 简化的神经网络图形 -->
    <circle cx="0" cy="0" r="80" fill="none" stroke="url(#purpleGradient)" stroke-width="3" stroke-dasharray="5,5"/>
    <circle cx="0" cy="0" r="50" fill="none" stroke="url(#blueGradient)" stroke-width="2"/>
    <circle cx="0" cy="0" r="20" fill="url(#purpleGradient)"/>
    <circle cx="80" cy="0" r="8" fill="#60A5FA"/>
    <circle cx="-80" cy="0" r="8" fill="#60A5FA"/>
    <circle cx="0" cy="80" r="8" fill="#60A5FA"/>
    <circle cx="0" cy="-80" r="8" fill="#60A5FA"/>
    <circle cx="57" cy="57" r="8" fill="#60A5FA"/>
    <circle cx="57" cy="-57" r="8" fill="#60A5FA"/>
    <circle cx="-57" cy="57" r="8" fill="#60A5FA"/>
    <circle cx="-57" cy="-57" r="8" fill="#60A5FA"/>
  </g>
  
  <!-- 作者信息 -->
  <text fill="#94A3B8" font-family="'Microsoft YaHei', sans-serif" font-size="20" text-anchor="middle" x="300" y="720">Leoo Bai</text>
  
  <!-- 底部科技装饰线 -->
  <line x1="150" y1="760" x2="450" y2="760" stroke="url(#blueGradient)" stroke-width="2"/>
</svg>